<svg width="149" height="57" viewBox="0 0 149 57" fill="none" xmlns="http://www.w3.org/2000/svg">
    <g clip-path="url(#clip0_704_1716)">
        <path d="M16.4627 29.603C17.5835 29.603 18.677 29.2294 19.5609 28.546L12.4534 21.4385C10.7403 23.6527 11.1504 26.842 13.3646 28.5551C14.2576 29.2294 15.342 29.603 16.4627 29.603Z" fill="black"/>
        <path d="M37.6032 24.5278C37.6032 23.407 37.2296 22.3136 36.5462 21.4297L29.4387 28.5372C31.653 30.2502 34.8331 29.8402 36.5462 27.626C37.2296 26.7421 37.6032 25.6486 37.6032 24.5278Z" fill="black"/>
        <path d="M41.1843 16.792L38.0407 19.9357C40.5738 22.97 40.1729 27.4897 37.1385 30.0228C34.4778 32.2462 30.6143 32.2462 27.9535 30.0228L24.5 33.4763L21.0556 30.0319C18.0213 32.5651 13.5016 32.1642 10.9685 29.1298C8.74509 26.4691 8.74509 22.6055 10.9685 19.9448L9.35561 18.3319L7.82477 16.792C5.975 19.8355 5 23.3345 5 26.8974C5 37.6679 13.7294 46.3974 24.5 46.3974C35.2706 46.3974 44 37.6679 44 26.8974C44.0091 23.3345 43.025 19.8355 41.1843 16.792Z" fill="black"/>
        <path d="M38.6056 13.4395C31.1792 5.64858 18.8414 5.35699 11.0505 12.7834C10.8227 13.0021 10.604 13.2208 10.3944 13.4395C9.91147 13.9497 9.45586 14.4783 9.02759 15.0341L24.5 30.5156L39.9724 15.0341C39.5533 14.4783 39.0886 13.9497 38.6056 13.4395ZM24.5 9.94951C29.0561 9.94951 33.3024 11.7082 36.4916 14.9156L24.5 26.9072L12.5084 14.9156C15.6977 11.7082 19.9439 9.94951 24.5 9.94951Z" fill="black"/>
    </g>
    <g clip-path="url(#clip1_704_1716)">
        <path d="M16.4627 29.603C17.5835 29.603 18.677 29.2294 19.5609 28.546L12.4534 21.4385C10.7403 23.6527 11.1504 26.842 13.3646 28.5551C14.2576 29.2294 15.342 29.603 16.4627 29.603Z" fill="black"/>
        <path d="M37.6032 24.5278C37.6032 23.407 37.2296 22.3136 36.5462 21.4297L29.4387 28.5372C31.653 30.2502 34.8331 29.8402 36.5462 27.626C37.2296 26.7421 37.6032 25.6486 37.6032 24.5278Z" fill="black"/>
        <path d="M41.1843 16.792L38.0407 19.9357C40.5738 22.97 40.1729 27.4897 37.1385 30.0228C34.4778 32.2462 30.6143 32.2462 27.9535 30.0228L24.5 33.4763L21.0556 30.0319C18.0213 32.5651 13.5016 32.1642 10.9685 29.1298C8.74509 26.4691 8.74509 22.6055 10.9685 19.9448L9.35561 18.3319L7.82477 16.792C5.975 19.8355 5 23.3345 5 26.8974C5 37.6679 13.7294 46.3974 24.5 46.3974C35.2706 46.3974 44 37.6679 44 26.8974C44.0091 23.3345 43.025 19.8355 41.1843 16.792Z" fill="black"/>
        <path d="M38.6056 13.4395C31.1792 5.64858 18.8414 5.35699 11.0505 12.7834C10.8227 13.0021 10.604 13.2208 10.3944 13.4395C9.91147 13.9497 9.45586 14.4783 9.02759 15.0341L24.5 30.5156L39.9724 15.0341C39.5533 14.4783 39.0886 13.9497 38.6056 13.4395ZM24.5 9.94951C29.0561 9.94951 33.3024 11.7082 36.4916 14.9156L24.5 26.9072L12.5084 14.9156C15.6977 11.7082 19.9439 9.94951 24.5 9.94951Z" fill="black"/>
    </g>
    <path d="M72.476 28.624C78.74 28.624 81.26 27.04 81.26 22.576C81.26 18.004 78.668 16.384 72.728 16.384C70.388 16.384 64.16 16.42 61.46 16.492C61.46 20.704 61.424 24.844 61.46 28.552C63.188 28.552 67.832 28.624 72.476 28.624ZM57.068 13H73.484C81.116 13 85.472 15.376 85.472 22.504C85.472 29.38 81.116 32.044 73.34 32.044C69.452 32.044 67.148 32.044 61.46 31.936C61.496 35.104 61.568 37.876 61.712 40H57.068C57.176 36.112 57.212 32.26 57.212 26.5C57.212 20.776 57.176 16.672 57.068 13ZM110.92 31.576V30.64C108.04 30.316 104.764 30.136 101.272 30.136C95.4035 30.136 93.0275 31.324 93.0275 33.88C93.0275 36.328 94.9715 37.624 100.336 37.624C107.572 37.624 110.92 34.924 110.92 31.576ZM111.028 35.464L110.812 35.428C109.372 38.632 105.268 40.504 98.9675 40.504C92.2715 40.504 89.0675 38.596 89.0675 34.348C89.0675 30.1 92.5595 28.12 100.732 28.12C105.124 28.12 108.688 28.408 110.956 28.84C110.992 28.048 110.992 27.292 110.992 26.68C110.992 23.224 109.228 21.064 102.424 21.064C95.9795 21.064 93.7835 22.9 93.8915 26.428C93.3875 26.392 92.7395 26.392 92.0195 26.392C91.2995 26.392 90.5795 26.392 90.0395 26.464C89.9675 20.992 93.6035 18.076 102.46 18.076C112.072 18.076 115.06 21.532 115.06 26.464C115.06 28.912 114.952 30.928 114.952 33.556C114.952 36.112 115.096 38.776 115.456 40H112.072C111.208 40 110.956 39.82 110.956 38.776C110.956 37.804 110.992 36.616 111.028 35.464ZM143.944 18.58H148.732C145.78 23.368 140.164 33.736 137.104 38.272C133.54 43.816 131.344 45.832 125.944 45.832C123.136 45.832 120.868 45.112 118.744 44.032C119.032 43.348 119.716 41.332 119.86 40.54C121.768 41.728 123.748 42.448 126.268 42.448C129.04 42.448 130.768 41.62 132.64 38.632L132.748 38.416C132.028 38.416 131.344 38.416 130.804 38.452C128.176 34.42 122.164 23.872 118.708 18.58H123.712C124.54 20.38 128.356 26.248 130.48 30.208C131.992 32.944 133.036 35.068 133.756 36.544H134.008C134.836 35.068 135.916 33.016 137.536 30.028C139.66 26.104 142.756 20.992 143.944 18.58Z" fill="black"/>
    <defs>
        <clipPath id="clip0_704_1716">
            <rect width="39" height="39" fill="white" transform="translate(5 7.39941)"/>
        </clipPath>
        <clipPath id="clip1_704_1716">
            <rect width="39" height="39" fill="white" transform="translate(5 7.39941)"/>
        </clipPath>
    </defs>
</svg>
