<svg width="438" height="120" viewBox="0 0 438 120" fill="none" xmlns="http://www.w3.org/2000/svg">
<g clip-path="url(#clip0_1511_5571)">
<path d="M34.3882 68.1106C37.7506 68.1106 41.031 66.9899 43.6826 64.9396L22.3602 43.6172C17.221 50.2599 18.4511 59.8277 25.0939 64.967C27.7728 66.9899 31.0259 68.1106 34.3882 68.1106Z" fill="black"/>
<path d="M97.8096 52.8852C97.8096 49.5228 96.6888 46.2425 94.6386 43.5908L73.3162 64.9133C79.9589 70.0525 89.4993 68.8224 94.6386 62.1796C96.6888 59.528 97.8096 56.2476 97.8096 52.8852Z" fill="black"/>
<path d="M108.553 29.6777L99.122 39.1088C106.721 48.2119 105.519 61.7707 96.4156 69.3703C88.4334 76.0404 76.8427 76.0404 68.8605 69.3703L58.5 79.7308L48.1668 69.3976C39.0638 76.9971 25.5049 75.7943 17.9054 66.6913C11.2353 58.709 11.2353 47.1184 17.9054 39.1361L13.0668 34.2976L8.4743 29.6777C2.925 38.8081 0 49.3053 0 59.9939C0 92.3055 26.1883 118.494 58.5 118.494C90.8117 118.494 117 92.3055 117 59.9939C117.027 49.3053 114.075 38.8081 108.553 29.6777Z" fill="black"/>
<path d="M100.817 19.6202C78.5377 -3.7525 41.5241 -4.62727 18.1515 17.6519C17.468 18.308 16.812 18.9641 16.1832 19.6202C14.7344 21.151 13.3676 22.7365 12.0828 24.404L58.5 70.8487L104.917 24.404C103.66 22.7365 102.266 21.151 100.817 19.6202ZM58.5 9.1503C72.1683 9.1503 84.9071 14.4262 94.4748 24.0487L58.5 60.0234L22.5253 24.0487C32.093 14.4262 44.8318 9.1503 58.5 9.1503Z" fill="black"/>
</g>
<path d="M202.428 65.1738C221.22 65.1738 228.78 60.4218 228.78 47.0298C228.78 33.3138 221.004 28.4538 203.184 28.4538C196.164 28.4538 177.48 28.5618 169.38 28.7778C169.38 41.4138 169.272 53.8338 169.38 64.9578C174.564 64.9578 188.496 65.1738 202.428 65.1738ZM156.204 18.3018H205.452C228.348 18.3018 241.416 25.4298 241.416 46.8138C241.416 67.4418 228.348 75.4338 205.02 75.4338C193.356 75.4338 186.444 75.4338 169.38 75.1098C169.488 84.6138 169.704 92.9298 170.136 99.3018H156.204C156.528 87.6378 156.636 76.0818 156.636 58.8018C156.636 41.6298 156.528 29.3178 156.204 18.3018Z" fill="black"/>
<path d="M321.344 74.0298V71.2218C312.704 70.2498 302.876 69.7098 292.4 69.7098C274.796 69.7098 267.668 73.2738 267.668 80.9418C267.668 88.2858 273.5 92.1738 289.592 92.1738C311.3 92.1738 321.344 84.0738 321.344 74.0298ZM321.668 85.6938L321.02 85.5858C316.7 95.1978 304.388 100.814 285.488 100.814C265.4 100.814 255.788 95.0898 255.788 82.3458C255.788 69.6018 266.264 63.6618 290.78 63.6618C303.956 63.6618 314.648 64.5258 321.452 65.8218C321.56 63.4458 321.56 61.1778 321.56 59.3418C321.56 48.9738 316.268 42.4938 295.856 42.4938C276.524 42.4938 269.936 48.0018 270.26 58.5858C268.748 58.4778 266.804 58.4778 264.644 58.4778C262.484 58.4778 260.324 58.4778 258.704 58.6938C258.488 42.2778 269.396 33.5298 295.964 33.5298C324.8 33.5298 333.764 43.8978 333.764 58.6938C333.764 66.0378 333.44 72.0858 333.44 79.9698C333.44 87.6378 333.872 95.6298 334.952 99.3018H324.8C322.208 99.3018 321.452 98.7618 321.452 95.6298C321.452 92.7138 321.56 89.1498 321.668 85.6938Z" fill="black"/>
<path d="M421.367 35.0418H435.731C426.875 49.4058 410.027 80.5098 400.847 94.1178C390.155 110.75 383.567 116.798 367.367 116.798C358.943 116.798 352.139 114.638 345.767 111.398C346.631 109.346 348.683 103.298 349.115 100.922C354.839 104.486 360.779 106.646 368.339 106.646C376.655 106.646 381.839 104.162 387.455 95.1978L387.779 94.5498C385.619 94.5498 383.567 94.5498 381.947 94.6578C374.063 82.5618 356.027 50.9178 345.659 35.0418H360.671C363.155 40.4418 374.603 58.0458 380.975 69.9258C385.511 78.1338 388.643 84.5058 390.803 88.9338H391.559C394.043 84.5058 397.283 78.3498 402.143 69.3858C408.515 57.6138 417.803 42.2778 421.367 35.0418Z" fill="black"/>
<defs>
<clipPath id="clip0_1511_5571">
<rect width="117" height="117" fill="white" transform="translate(0 1.5)"/>
</clipPath>
</defs>
</svg>
