<svg width="914" height="275" viewBox="0 0 914 275" fill="none" xmlns="http://www.w3.org/2000/svg">
<g clip-path="url(#clip0_25_522)">
<path d="M-4.99168e-05 202.632C115.359 161.022 42.8695 -7.80798 251.341 15.132C447.179 36.682 636.789 137.142 911.987 13.002" stroke="#CDDF52" stroke-miterlimit="10"/>
<path d="M-4.99168e-05 204.992C114.176 165.892 56.0562 2.54204 264.112 23.042C461.159 42.072 649.888 143.082 911.987 24.852" stroke="#CDDF52" stroke-miterlimit="10"/>
<path d="M0.000371271 207.342C112.994 170.752 69.193 13.262 276.897 30.942C475.101 47.812 662.999 149.002 912 36.692" stroke="#CDDF52" stroke-miterlimit="10"/>
<path d="M-4.99168e-05 209.702C111.811 175.622 82.3669 23.772 289.668 38.842C489.067 53.342 676.11 154.932 911.987 48.522" stroke="#CDDF52" stroke-miterlimit="10"/>
<path d="M-4.99168e-05 212.052C110.64 180.482 95.5536 34.242 302.44 46.742C503.047 58.862 689.209 160.862 911.987 60.362" stroke="#CDDF52" stroke-miterlimit="10"/>
<path d="M-4.99168e-05 214.412C109.458 185.352 108.753 44.712 315.211 54.642C517.026 64.352 702.308 166.782 911.987 72.202" stroke="#CDDF52" stroke-miterlimit="10"/>
<path d="M-4.99168e-05 216.772C108.275 190.222 121.952 55.152 327.983 62.552C531.018 69.842 715.419 172.722 911.987 84.052" stroke="#CDDF52" stroke-miterlimit="10"/>
<path d="M0.000371271 219.122C107.092 195.092 135.152 65.562 340.767 70.452C545.023 75.302 728.531 178.652 912 95.892" stroke="#CDDF52" stroke-miterlimit="10"/>
<path d="M-4.99168e-05 221.482C105.909 199.962 148.364 75.962 353.538 78.352C559.028 80.742 741.629 184.582 911.987 107.732" stroke="#CDDF52" stroke-miterlimit="10"/>
<path d="M-4.99168e-05 223.842C104.726 204.832 161.563 86.352 366.31 86.262C573.032 86.172 754.728 190.512 911.987 119.582" stroke="#CDDF52" stroke-miterlimit="10"/>
<path d="M-4.99168e-05 226.192C103.544 209.692 174.775 96.7021 379.081 94.1621C587.024 91.5721 767.839 196.442 911.987 131.412" stroke="#CDDF52" stroke-miterlimit="10"/>
<path d="M-4.99168e-05 228.552C102.373 214.562 187.987 107.042 391.853 102.062C601.029 96.9521 780.937 202.372 911.987 143.252" stroke="#CDDF52" stroke-miterlimit="10"/>
<path d="M0.000371271 230.912C101.191 219.432 201.199 117.362 404.637 109.972C615.034 102.322 794.049 208.302 912 155.102" stroke="#CDDF52" stroke-miterlimit="10"/>
<path d="M-4.99168e-05 233.262C100.008 224.292 214.398 127.662 417.408 117.872C629.038 107.662 807.147 214.232 911.987 166.942" stroke="#CDDF52" stroke-miterlimit="10"/>
<path d="M-4.99168e-05 235.622C98.8251 229.162 227.597 137.942 430.18 125.772C643.03 112.982 820.259 220.162 911.987 178.782" stroke="#CDDF52" stroke-miterlimit="10"/>
<path d="M-4.99168e-05 237.982C97.6423 234.032 240.797 148.212 442.951 133.682C657.022 118.292 833.357 226.102 911.987 190.632" stroke="#CDDF52" stroke-miterlimit="10"/>
<path d="M-4.99168e-05 240.332C96.4595 238.902 253.996 158.452 455.723 141.572C671.002 123.572 846.456 232.012 911.987 202.462" stroke="#CDDF52" stroke-miterlimit="10"/>
<path d="M-4.99168e-05 242.692C95.2767 243.772 267.183 168.682 468.507 149.482C684.981 128.842 859.567 237.952 911.987 214.302" stroke="#CDDF52" stroke-miterlimit="10"/>
<path d="M-4.99168e-05 245.052C94.1065 248.642 280.357 178.902 481.279 157.392C698.961 134.082 872.678 243.882 911.987 226.152" stroke="#CDDF52" stroke-miterlimit="10"/>
<path d="M-4.99168e-05 247.402C92.9238 253.502 293.531 189.092 494.05 165.282C712.915 139.302 885.777 249.812 911.987 237.992" stroke="#CDDF52" stroke-miterlimit="10"/>
<path d="M-4.99168e-05 249.762C91.741 258.372 306.655 199.102 506.822 173.192C726.832 144.322 898.888 255.742 911.987 249.832" stroke="#CDDF52" stroke-miterlimit="10"/>
<path d="M-4.99168e-05 252.122C90.5582 263.242 319.842 209.452 519.593 181.102C740.811 149.702 911.987 261.672 911.987 261.672" stroke="#CDDF52" stroke-miterlimit="10"/>
</g>
<defs>
<clipPath id="clip0_25_522">
<rect width="914" height="275" fill="white"/>
</clipPath>
</defs>
</svg>
