<svg width="914" height="275" viewBox="0 0 914 275" fill="none" xmlns="http://www.w3.org/2000/svg">
<g clip-path="url(#clip0_25_369)">
<path d="M912 43.658C763.417 106.088 697.766 -4.98202 568.513 33.258C293.534 114.598 348.526 419.168 0 154.328" stroke="#CDDF52" stroke-miterlimit="10"/>
<path d="M912 54.5979C766.998 114.578 694.644 -1.20208 564.056 34.6479C293.167 109.008 339.06 404.768 0.224609 146.998" stroke="#CDDF52" stroke-miterlimit="10"/>
<path d="M912 65.5478C770.578 123.088 691.574 2.62778 559.598 36.0478C292.902 103.578 329.594 390.368 0.438782 139.688" stroke="#CDDF52" stroke-miterlimit="10"/>
<path d="M912 76.4879C774.148 131.588 688.555 6.4879 555.15 37.4379C292.739 98.3179 320.148 375.968 0.673401 132.358" stroke="#CDDF52" stroke-miterlimit="10"/>
<path d="M912 87.4378C777.729 140.088 685.576 10.4078 550.693 38.8378C292.667 93.2278 310.681 361.578 0.887573 125.038" stroke="#CDDF52" stroke-miterlimit="10"/>
<path d="M912 98.3778C781.309 148.588 682.628 14.3678 546.235 40.2278C292.667 88.2978 301.215 347.168 1.10175 117.708" stroke="#CDDF52" stroke-miterlimit="10"/>
<path d="M912 109.328C784.889 157.098 679.731 18.4078 541.777 41.6278C292.748 83.5578 291.749 332.778 1.32587 110.388" stroke="#CDDF52" stroke-miterlimit="10"/>
<path d="M912 120.268C788.47 165.588 676.855 22.4979 537.32 43.0179C292.892 78.9679 282.283 318.368 1.54053 103.068" stroke="#CDDF52" stroke-miterlimit="10"/>
<path d="M912 131.218C792.05 174.098 674.019 26.678 532.862 44.428C293.085 74.578 272.817 303.988 1.76471 95.758" stroke="#CDDF52" stroke-miterlimit="10"/>
<path d="M912 142.158C795.631 182.598 671.203 30.9279 528.404 45.8179C293.33 70.3279 263.35 289.578 1.97888 88.4279" stroke="#CDDF52" stroke-miterlimit="10"/>
<path d="M912 153.108C799.211 191.108 668.408 35.2679 523.947 47.2179C293.606 66.2679 253.884 275.188 2.20349 81.1079" stroke="#CDDF52" stroke-miterlimit="10"/>
<path d="M912 164.048C802.792 199.598 665.623 39.698 519.489 48.608C293.901 62.358 244.418 260.788 2.41766 73.788" stroke="#CDDF52" stroke-miterlimit="10"/>
<path d="M912 174.998C806.372 208.108 662.849 44.2479 515.041 50.0079C294.217 58.6179 234.962 246.388 2.64178 66.4679" stroke="#CDDF52" stroke-miterlimit="10"/>
<path d="M912 185.938C809.952 216.608 660.074 48.8978 510.584 51.3978C294.524 55.0178 225.496 231.988 2.86646 59.1378" stroke="#CDDF52" stroke-miterlimit="10"/>
<path d="M912 196.888C813.533 225.108 657.3 53.6679 506.126 52.7979C294.819 51.5879 216.03 217.588 3.08063 51.8179" stroke="#CDDF52" stroke-miterlimit="10"/>
<path d="M911.999 207.828C817.103 233.608 654.494 58.5578 501.668 54.1878C295.094 48.2878 206.563 203.188 3.30475 44.4878" stroke="#CDDF52" stroke-miterlimit="10"/>
<path d="M911.999 218.778C820.683 242.118 651.679 63.5877 497.21 55.5977C295.329 45.1477 197.097 188.798 3.51892 37.1877" stroke="#CDDF52" stroke-miterlimit="10"/>
<path d="M912 229.718C824.264 250.608 648.823 68.7479 492.753 56.9879C295.523 42.1279 187.631 174.398 3.73358 29.8579" stroke="#CDDF52" stroke-miterlimit="10"/>
<path d="M912 240.668C827.844 259.118 645.926 74.0678 488.295 58.3878C295.656 39.2278 178.175 160.008 3.95776 22.5378" stroke="#CDDF52" stroke-miterlimit="10"/>
<path d="M912 251.608C831.425 267.618 642.978 79.5178 483.837 59.7778C295.717 36.4378 168.709 145.598 4.17194 15.2078" stroke="#CDDF52" stroke-miterlimit="10"/>
<path d="M912 262.558C835.005 276.118 639.959 85.1479 479.38 61.1779C295.697 33.7679 159.242 131.208 4.39655 7.89795" stroke="#CDDF52" stroke-miterlimit="10"/>
<path d="M912 273.498C838.586 284.618 636.868 90.9179 474.922 62.5679C295.584 31.1779 149.776 116.798 4.61072 0.567871" stroke="#CDDF52" stroke-miterlimit="10"/>
</g>
<defs>
<clipPath id="clip0_25_369">
<rect width="914" height="275" fill="white"/>
</clipPath>
</defs>
</svg>
