<svg width="914" height="313" viewBox="0 0 914 313" fill="none" xmlns="http://www.w3.org/2000/svg">
<g clip-path="url(#clip0_25_524)">
<path d="M912 32.4269C780.253 16.6169 624.732 -24.6431 475.535 21.9669C338.429 64.7869 170.816 162.037 0.0117798 68.0069" stroke="#CDDF52" stroke-miterlimit="10"/>
<path d="M912 35.917C782.397 21.387 627.948 -7.35303 476.607 35.317C336.068 74.937 166.047 161.697 0.0117798 72.937" stroke="#CDDF52" stroke-miterlimit="10"/>
<path d="M912 39.407C784.541 26.157 631.116 9.88698 477.666 48.677C333.671 85.077 161.277 161.357 0.0117798 77.877" stroke="#CDDF52" stroke-miterlimit="10"/>
<path d="M912 42.887C786.685 30.917 634.235 27.087 478.726 62.027C331.239 95.157 156.508 161.017 0.0117798 82.807" stroke="#CDDF52" stroke-miterlimit="10"/>
<path d="M912 46.3769C788.828 35.6969 637.33 44.2469 479.786 75.3769C328.782 105.217 151.727 160.667 0.0117798 87.7369" stroke="#CDDF52" stroke-miterlimit="10"/>
<path d="M912 49.8669C790.985 40.4669 640.402 61.3669 480.846 88.7369C326.289 115.247 146.958 160.327 0 92.6769" stroke="#CDDF52" stroke-miterlimit="10"/>
<path d="M912 53.357C793.128 45.237 643.448 78.457 481.918 102.097C323.796 125.237 142.188 159.997 0.0117798 97.617" stroke="#CDDF52" stroke-miterlimit="10"/>
<path d="M912 56.8469C795.272 50.0069 646.483 95.4969 482.978 115.447C321.266 135.187 137.419 159.647 0.0117798 102.537" stroke="#CDDF52" stroke-miterlimit="10"/>
<path d="M912 60.3269C797.416 54.7769 649.494 112.487 484.038 128.797C318.737 145.087 132.637 159.297 0.0117798 107.467" stroke="#CDDF52" stroke-miterlimit="10"/>
<path d="M912 63.8169C799.559 59.5469 652.505 129.447 485.097 142.157C316.184 154.977 127.868 158.967 0.0117798 112.407" stroke="#CDDF52" stroke-miterlimit="10"/>
<path d="M912 67.307C801.715 64.317 655.504 146.377 486.157 155.507C313.643 164.807 123.087 158.617 0.0117798 117.337" stroke="#CDDF52" stroke-miterlimit="10"/>
<path d="M912 70.7969C803.859 69.0869 658.515 163.277 487.217 168.867C311.09 174.617 118.318 158.277 0 122.277" stroke="#CDDF52" stroke-miterlimit="10"/>
<path d="M912 74.2869C806.003 73.8669 661.526 180.137 488.289 182.227C308.548 184.387 113.548 157.947 0.0117798 127.217" stroke="#CDDF52" stroke-miterlimit="10"/>
<path d="M912 77.7769C808.147 78.6369 664.537 196.967 489.349 195.577C306.007 194.127 108.779 157.597 0.0117798 132.137" stroke="#CDDF52" stroke-miterlimit="10"/>
<path d="M912 81.257C810.29 83.397 667.56 213.757 490.409 208.927C303.478 203.827 103.997 157.247 0.0117798 137.067" stroke="#CDDF52" stroke-miterlimit="10"/>
<path d="M912 84.7469C812.446 88.1669 670.583 230.537 491.469 222.287C300.949 213.507 99.2281 156.907 0.0117798 142.007" stroke="#CDDF52" stroke-miterlimit="10"/>
<path d="M912 88.2369C814.59 92.9469 673.63 247.297 492.528 235.637C298.444 223.147 94.4467 156.567 0.0117798 146.937" stroke="#CDDF52" stroke-miterlimit="10"/>
<path d="M912 91.7269C816.734 97.7169 676.677 264.027 493.588 248.997C295.938 232.767 89.6774 156.227 0.0117798 151.877" stroke="#CDDF52" stroke-miterlimit="10"/>
<path d="M912 95.2169C818.877 102.487 679.748 280.737 494.66 262.357C293.457 242.367 84.9081 155.887 0.0117798 156.807" stroke="#CDDF52" stroke-miterlimit="10"/>
<path d="M912 98.6969C821.033 107.257 682.831 297.417 495.72 275.697C290.988 251.937 80.1267 155.547 0.0117798 161.737" stroke="#CDDF52" stroke-miterlimit="10"/>
<path d="M912 102.187C823.177 112.027 685.975 313.837 496.78 289.057C288.592 261.197 75.3574 155.207 0.0117798 166.677" stroke="#CDDF52" stroke-miterlimit="10"/>
<path d="M912 105.677C825.321 116.797 689.046 330.757 497.84 302.417C286.099 271.017 70.5881 154.867 0.0117798 171.607" stroke="#CDDF52" stroke-miterlimit="10"/>
</g>
<defs>
<clipPath id="clip0_25_524">
<rect width="914" height="313" fill="white"/>
</clipPath>
</defs>
</svg>
