<svg width="914" height="275" viewBox="0 0 914 275" fill="none" xmlns="http://www.w3.org/2000/svg">
<g clip-path="url(#clip0_25_523)">
<path d="M912 106.432C780.252 90.6225 682.937 -29.9575 533.737 16.6425C396.618 59.4725 170.819 151.143 0 57.1025" stroke="#CDDF52" stroke-miterlimit="10"/>
<path d="M912 114.122C782.396 99.5925 683.082 -17.7175 531.738 24.9525C391.21 64.5825 166.037 154.922 0 66.1725" stroke="#CDDF52" stroke-miterlimit="10"/>
<path d="M912 121.813C784.539 108.563 683.19 -5.51741 529.739 33.2626C385.742 69.6626 161.268 158.713 0 75.2326" stroke="#CDDF52" stroke-miterlimit="10"/>
<path d="M912 129.513C786.683 117.543 683.25 6.65262 527.739 41.5926C380.25 74.7226 156.498 162.523 0 84.3126" stroke="#CDDF52" stroke-miterlimit="10"/>
<path d="M912 137.202C788.827 126.522 683.286 18.7725 525.74 49.9025C374.734 79.7425 151.717 166.312 0 93.3725" stroke="#CDDF52" stroke-miterlimit="10"/>
<path d="M912 144.893C790.983 135.493 683.298 30.8425 523.741 58.2125C369.182 84.7225 146.948 170.092 0 102.442" stroke="#CDDF52" stroke-miterlimit="10"/>
<path d="M912 152.583C793.127 144.463 683.274 42.8825 521.742 66.5225C363.617 89.6625 142.178 173.883 0 111.503" stroke="#CDDF52" stroke-miterlimit="10"/>
<path d="M912 160.283C795.271 153.443 683.25 54.8926 519.742 74.8426C358.029 94.5826 137.397 177.683 0 120.573" stroke="#CDDF52" stroke-miterlimit="10"/>
<path d="M912 167.973C797.414 162.423 683.202 66.8425 517.743 83.1525C352.441 99.4425 132.627 181.473 0 129.633" stroke="#CDDF52" stroke-miterlimit="10"/>
<path d="M912 175.662C799.558 171.392 683.154 78.7625 515.744 91.4625C348.334 104.162 127.846 185.262 0 138.702" stroke="#CDDF52" stroke-miterlimit="10"/>
<path d="M912 183.353C801.714 180.363 683.094 90.6425 513.744 99.7725C341.228 109.073 123.077 189.043 0 147.763" stroke="#CDDF52" stroke-miterlimit="10"/>
<path d="M912 191.043C803.858 189.333 683.046 102.493 511.745 108.083C335.615 113.833 118.307 192.833 0 156.823" stroke="#CDDF52" stroke-miterlimit="10"/>
<path d="M912 198.742C806.002 198.322 682.985 114.323 509.746 116.413C336.506 118.503 113.538 196.632 0 165.903" stroke="#CDDF52" stroke-miterlimit="10"/>
<path d="M912 206.433C808.145 207.293 682.937 126.113 507.747 124.723C324.402 123.273 108.756 200.423 0 174.973" stroke="#CDDF52" stroke-miterlimit="10"/>
<path d="M912 214.123C810.289 216.263 682.901 137.863 505.747 133.033C318.814 127.933 103.987 204.213 0 184.033" stroke="#CDDF52" stroke-miterlimit="10"/>
<path d="M912 221.813C812.445 225.233 682.865 149.603 503.748 141.343C313.226 132.563 99.2176 208.003 0 193.093" stroke="#CDDF52" stroke-miterlimit="10"/>
<path d="M912 229.512C814.589 234.222 682.853 161.312 501.749 149.662C307.661 137.172 94.4482 211.802 0 202.162" stroke="#CDDF52" stroke-miterlimit="10"/>
<path d="M912 237.203C816.733 243.193 682.841 173.002 499.749 157.972C302.097 141.752 89.6668 215.582 0 211.232" stroke="#CDDF52" stroke-miterlimit="10"/>
<path d="M912 244.892C818.877 252.162 682.841 184.672 497.75 166.282C296.557 146.302 84.8974 219.372 0 220.292" stroke="#CDDF52" stroke-miterlimit="10"/>
<path d="M912 252.583C821.032 261.143 682.865 196.323 495.751 174.593C291.029 150.823 80.128 223.163 0 229.353" stroke="#CDDF52" stroke-miterlimit="10"/>
<path d="M912 260.283C823.176 270.123 682.949 207.693 493.752 182.923C285.561 155.063 75.3466 226.973 0 238.433" stroke="#CDDF52" stroke-miterlimit="10"/>
<path d="M912 267.972C825.32 279.092 682.949 219.583 491.752 191.233C280.009 159.843 70.5772 230.752 0 247.502" stroke="#CDDF52" stroke-miterlimit="10"/>
</g>
<defs>
<clipPath id="clip0_25_523">
<rect width="914" height="275" fill="white"/>
</clipPath>
</defs>
</svg>
